<svg xmlns="http://www.w3.org/2000/svg" width="200.579" height="107.603" viewBox="0 0 200.579 107.603">
  <g id="sparkles_homepage" transform="translate(-131.679 -13.381)">
    <path id="Path_33" data-name="Path 33" d="M270.824,21.167l-25.968,7.054,3.778,16.85a7.738,7.738,0,1,0,2.264,2.365l-3-13.359,22.4-7.043,2.049,9.951a7.736,7.736,0,1,0,2.2,2.3l-3.73-18.118Z" transform="translate(-105.003 -7.786)" fill="#fff"/>
    <path id="Path_34" data-name="Path 34" d="M326.556,46.084A7.586,7.586,0,0,0,319.72,56.99l4.338,17.893,2.462-.6-3.346-13.8a7.6,7.6,0,1,0,3.382-14.4Z" transform="translate(-64.267 -11.25)" fill="#fff"/>
    <path id="Path_35" data-name="Path 35" d="M371.159,98.445l-4.306-17.222-2.614.614,3.368,13.471a8.235,8.235,0,0,0-3.406-.739,7.827,7.827,0,1,0,8.069,7.824,7.6,7.6,0,0,0-1.111-3.948Z" transform="translate(-150.942 10.767)" fill="#fff"/>
    <path id="Path_43" data-name="Path 43" d="M469.587,430.019c-.426-1.372-.744-1.271-.947-1.271a11.9,11.9,0,0,0-3.642.483c-.509.114-1.329.191-1.557.216-.044,0-.083.076-.115.076a8.612,8.612,0,0,0-.9.076c-.038-.33-.057-.635-.1-.991-.14-1.144-.241-2.287-.439-3.424-.038-.229.4-.5-.636-.635h-.044a6.853,6.853,0,0,0-1.081,0c-1.646,0-2.161.146-1.907.432.057.063,0,.14-.051.216a1.271,1.271,0,0,0-.114.6c0,.19.273.387.261.565a15.253,15.253,0,0,0-.349,2.287,8.32,8.32,0,0,0,.388,1.734c-.458.032-.915.032-1.373.044-1.3.038-2.606,0-3.922-.057-.273,0-.47-.5-.858.457v.045a5.228,5.228,0,0,0-.222,1.061c-.343,1.614-.318,2.141.1,1.944.089-.044.165.038.248.1a1.748,1.748,0,0,0,.712.235c.242.044.528-.2.744-.146a15.422,15.422,0,0,0,2.8.635,10.428,10.428,0,0,0,2.333-.3,7.582,7.582,0,0,0,.432,2.643c.311.68,0,1.423-.057,2.141-.032.3.852.419,2.345.311s1.418-.387,1.475-.559a7.2,7.2,0,0,0,.172-3.259c-.051-.464-.038-1.194-.051-1.4,0-.044-.07-.076-.07-.108v-.311h.133a12.163,12.163,0,0,0,3.744-.947,6.937,6.937,0,0,1,2.619-.47C470.063,432.351,470.031,431.449,469.587,430.019Z" transform="translate(-277.584 -359.958)" fill="#fff"/>
    <path id="Path_44" data-name="Path 44" d="M572.76,509.159c-.528-1.334-.756-1.271-.909-1.271a7.439,7.439,0,0,0-2.714.318,7.164,7.164,0,0,1-1.151.121c-.032,0-.057.07-.083.07a13.007,13.007,0,0,0-1.633.083v-.635c-.076-.915-.121-1.824-.261-2.732,0-.184.432-.381-.572-.534h-.044a8.236,8.236,0,0,0-1.081,0c-1.646,0-2.161.051-1.907.286.057.051,0,.108-.064.165a.807.807,0,0,0-.14.47c0,.159.254.318.223.457a10.057,10.057,0,0,0-.464,1.8,3.35,3.35,0,0,0,.133.788c-.578-.108-1.157-.235-1.735-.369-.2-.051-.21-.546-.756.311l-.032.038a7.691,7.691,0,0,0-.458.985c-.706,1.487-.82,2-.426,1.906.083,0,.127.064.178.14a1.149,1.149,0,0,0,.528.349c.184.083.477-.1.636,0a9.012,9.012,0,0,0,2.187,1.055,2.431,2.431,0,0,0,.375.051,3.3,3.3,0,0,0,.28,1.5c.28.553-.051,1.131-.172,1.7-.051.235.826.362,2.326.324s1.437-.267,1.506-.4a4.641,4.641,0,0,0,.337-2.579,6.6,6.6,0,0,1,0-.705,7.6,7.6,0,0,0,1-.089,7.44,7.44,0,0,0,3.115-.775,5.379,5.379,0,0,1,2.174-.432C573.447,511.427,573.313,510.55,572.76,509.159Z" transform="translate(-296.157 -404.234)" fill="#fff"/>
    <path id="Path_45" data-name="Path 45" d="M621.094,401.857c.07-1.436.407-1.423.6-1.487a9.92,9.92,0,0,1,3.814-.216c.547.044,1.4,0,1.64,0,.051,0,.1.064.127.064a6.715,6.715,0,0,1,1.011,0c.051-.21.146-.419.216-.635-.1-.261.146-.47.229-.705a14.193,14.193,0,0,0,.477-2.611c.229-1.43.413-2.859.7-4.276.057-.292-.362-.635.636-.794h.044a5.035,5.035,0,0,1,1.087.044c1.646.07,2.148.235,1.856.585-.064.082,0,.178.038.267a1.818,1.818,0,0,1,.063.756c0,.241-.3.477-.3.7a23.067,23.067,0,0,1,.172,2.872c-.114,1.093-.572,2.135-.782,3.215-.083.419-.14.845-.191,1.271.42,0,.845.051,1.271.089,1.341.121,2.682.2,4.017.387.273,0,.572-.413.782.6v.044a5.35,5.35,0,0,1,0,1.08c.038,1.645-.089,2.16-.432,1.906-.076-.057-.165,0-.248.057a1.682,1.682,0,0,1-.693.121c-.229,0-.464-.267-.674-.248a19.47,19.47,0,0,1-2.663.375,10.318,10.318,0,0,1-1.945-.337,7.16,7.16,0,0,1-.477,1.957,6.133,6.133,0,0,0-.108,2.681c0,.375-.884.508-2.365.33s-1.4-.521-1.443-.743a11.264,11.264,0,0,1,.076-4.079c0-.178.051-.381.07-.591h-.1a14.909,14.909,0,0,1-3.617-.445,5.4,5.4,0,0,0-2.5.089C621.2,404.233,621.024,403.382,621.094,401.857Z" transform="translate(-306.376 -345.453)" fill="#fff"/>
  </g>
</svg>
