<svg xmlns="http://www.w3.org/2000/svg" width="60" height="41" fill="none" viewBox="0 0 60 41">
  <path fill="#FCFDFF" d="M19.608 14.22c-.468-1.555-.817-1.44-1.04-1.44a12.719 12.719 0 0 0-4.005.547c-.559.13-1.46.216-1.711.245-.05 0-.091.087-.126.087-.33.01-.659.04-.985.086-.042-.374-.063-.72-.105-1.123-.154-1.295-.266-2.59-.482-3.878-.042-.26.44-.562-.699-.72h-.049a7.317 7.317 0 0 0-1.188 0c-1.81 0-2.375.166-2.096.49.063.071 0 .158-.056.244a1.477 1.477 0 0 0-.125.677c0 .215.3.438.286.64-.192.852-.32 1.718-.384 2.59.073.67.216 1.328.426 1.965-.503.036-1.006.036-1.51.05-1.432.043-2.864 0-4.31-.064-.3 0-.517-.562-.944.518v.05c-.121.39-.203.793-.244 1.202-.378 1.827-.35 2.425.112 2.202.097-.05.181.043.272.115.24.146.506.237.783.266.265.05.58-.223.817-.166 1 .338 2.03.58 3.074.72a11.146 11.146 0 0 0 2.565-.338 8.823 8.823 0 0 0 .475 2.993c.342.77 0 1.612-.063 2.425-.035.339.936.475 2.578.353s1.558-.439 1.621-.633a8.39 8.39 0 0 0 .189-3.692c-.056-.525-.042-1.353-.056-1.59 0-.05-.077-.087-.077-.122v-.353h.147c1.397-.288 2.795-.324 4.115-1.072.867-.518 1.9-.389 2.879-.532.44-.101.405-1.123-.084-2.742ZM41.41 32.99c-.568-1.448-.815-1.38-.98-1.38a7.97 7.97 0 0 0-2.925.345 7.594 7.594 0 0 1-1.24.131c-.034 0-.061.076-.089.076a13.925 13.925 0 0 0-1.76.09v-.69c-.083-.992-.13-1.978-.281-2.964 0-.2.465-.413-.617-.579h-.048a8.841 8.841 0 0 0-1.165 0c-1.774 0-2.329.055-2.055.31.061.055 0 .118-.069.18a.88.88 0 0 0-.15.51c0 .172.274.344.24.496a10.96 10.96 0 0 0-.5 1.958c.013.29.062.577.143.855a45.35 45.35 0 0 1-1.87-.4c-.22-.055-.226-.593-.815.338l-.035.041a8.34 8.34 0 0 0-.493 1.069c-.76 1.613-.884 2.17-.46 2.068.09 0 .138.069.193.151.15.178.347.309.569.38.198.089.513-.111.685 0a9.69 9.69 0 0 0 2.357 1.144 2.6 2.6 0 0 0 .404.055 3.596 3.596 0 0 0 .301 1.627c.302.6-.055 1.227-.185 1.84-.055.255.89.393 2.508.352 1.617-.042 1.548-.29 1.623-.435.384-.879.51-1.85.364-2.798a7.18 7.18 0 0 1 0-.765c.362-.008.724-.04 1.082-.097 1.13-.186 2.33-.159 3.357-.841.685-.462 1.542-.324 2.343-.469.309-.138.165-1.089-.431-2.599Zm18.574-21.093c-.076-1.6-.44-1.586-.654-1.657a10.434 10.434 0 0 0-4.128-.24c-.591.049-1.514 0-1.775 0-.055 0-.103.07-.138.07a7.058 7.058 0 0 0-1.093 0c-.056-.234-.159-.468-.234-.708.103-.29-.159-.524-.248-.787a16.256 16.256 0 0 1-.516-2.91C50.95 4.07 50.75 2.477 50.44.898c-.062-.326.392-.708-.688-.885h-.048a5.293 5.293 0 0 0-1.176.05c-1.782.077-2.326.261-2.01.651.07.092 0 .198-.04.297-.08.273-.104.56-.07.843 0 .27.324.532.324.78a26.482 26.482 0 0 0-.186 3.2c.124 1.219.62 2.38.847 3.584.089.468.15.942.206 1.417-.454 0-.915.056-1.376.099-1.452.134-2.903.227-4.348.432-.296 0-.62-.46-.846.666v.05c-.04.4-.04.803 0 1.204-.042 1.834.096 2.408.467 2.124.083-.064.18 0 .269.064.238.099.493.145.75.134.247 0 .502-.297.729-.276.95.208 1.913.348 2.883.418a10.87 10.87 0 0 0 2.105-.375c.071.748.245 1.483.516 2.181.399.942.144 1.983.117 2.989 0 .418.956.566 2.559.368 1.603-.198 1.514-.58 1.562-.828.241-1.509.213-3.05-.083-4.547 0-.199-.055-.425-.075-.66h.103c1.307-.162 2.62 0 3.914-.495.874-.34 1.803 0 2.71.1.31.063.503-.886.428-2.586Z"/>
</svg>
