<?xml version="1.0" encoding="utf-8"?>
<!-- Generator: Adobe Illustrator 26.0.3, SVG Export Plug-In . SVG Version: 6.00 Build 0)  -->
<svg version="1.1" id="woman" xmlns="http://www.w3.org/2000/svg" xmlns:xlink="http://www.w3.org/1999/xlink" x="0px" y="0px"
	 viewBox="0 0 342.3 256.7" style="enable-background:new 0 0 342.3 256.7;" xml:space="preserve">
<style type="text/css">
	.st0{fill:#E18B85;}
	.st1{fill:#0D0C15;}
	.st2{fill:#E6E6E6;}
	.st3{fill:#D237DD;}
	.st4{fill:#FFFFFF;}
</style>
<g id="Group_4" transform="translate(70.447 230.405)">
	<path id="Path_5" class="st0" d="M20.5,22.8h-5.9L11.8,0h8.7L20.5,22.8z"/>
	<path id="Path_6" class="st1" d="M0.3,22.7L0.3,22.7C0.1,23.2,0,23.8,0,24.3l0,0c0,1.1,0.9,2,2,2h18.3c0.8,0,1.4-0.6,1.4-1.4l0,0
		v-0.8c0.5-1.8,0.1-3.7-1-5.1c0,0-2.3,2.2-5.8-1.3l-1-1.8l-7.4,5.4l-4.1,0.5C1.5,22,0.7,21.9,0.3,22.7L0.3,22.7z"/>
</g>
<g id="Group_5" transform="translate(43.979 230.405)">
	<path id="Path_7" class="st0" d="M20.5,22.8h-5.9L11.8,0h8.7L20.5,22.8z"/>
	<path id="Path_8" class="st1" d="M0.3,22.7L0.3,22.7C0.1,23.2,0,23.8,0,24.3l0,0c0,1.1,0.9,2,2,2h18.3c0.8,0,1.4-0.6,1.4-1.4l0,0
		v-0.8c0.5-1.8,0.1-3.7-1-5.1c0,0-2.3,2.2-5.8-1.3l-1-1.8l-7.4,5.4l-4.1,0.5C1.5,22,0.7,21.9,0.3,22.7L0.3,22.7z"/>
</g>
<path id="Path_9" class="st1" d="M91.5,110.2l5.5,14.1l-4.3,112.6h-12L69.8,135.3l-2.6,101.9l-11.7-0.3L42.8,123.8l8.4-10.1
	L91.5,110.2z"/>
<path id="Path_10" class="st2" d="M65.5,30.3l14.4-1l4.5,7.2l13.4,3.8l-5,34.9l5.3,52.1c0,0-19.2-2.8-20.6,2.8
	c-1.4,5.5-35.1-5.5-35.1-5.5L54,88.9l-1-27.8l-3.1-16.2L64,38.4L65.5,30.3L65.5,30.3z"/>
<path id="Path_11" class="st2" d="M59,40.6c0,0-11.5-0.2-13.1,4.6s-6.7,38.2-6.7,38.2l-4,14.6L53,89.3l-3.8-5.8l12.4-23.7L59,40.6z"
	/>
<path id="Path_12" class="st3" d="M66,94.1c1.9,0,3.6-1.1,4.4-2.8c0.5-1.2,0.5-2.5,0.1-3.7c0.1-0.1,0.3-0.1,0.4-0.2
	c-0.2-0.1-0.4-0.2-0.6-0.3c-0.7-1.4-2-2.4-3.6-2.6c-2-2.1-3.1-5-3.1-7.9c0-6.3,5.1-11.5,11.4-11.7h0.1c2.8,0,5.4,1.5,6.8,4
	c1.3,2.3,4.3,3.1,6.6,1.7c0.4-0.2,0.7-0.5,1-0.8c1.9-2,4.3-3.4,7-3.9c1.8-0.3,3.6-0.4,5.5-0.3c12.8,0.6,23.9,12,24.1,24.8
	c0.3,14-10.8,25.7-24.9,26c-7.3,0.2-14.3-2.8-19.3-8.2c-2.1-2.2-5-3.5-8-3.5h-0.1c-4.9,0-8.9-4-8.9-8.9c0-0.3,0-0.5,0-0.8
	C65.1,94.5,65.5,94.1,66,94.1L66,94.1L66,94.1z"/>
<path id="Path_20" class="st1" d="M108.3,86.5L22.7,70.4l-0.3,6.2l84.9,20.3L108.3,86.5z"/>
<path id="Path_21" class="st3" d="M23.8,71.4l-1-1c0,0-4.5-2.1-4.5-2.4c0-0.2-6.6-2.4-11.5-4.1c-2.4-0.8-5.1,0.5-5.9,2.9
	c-0.1,0.3-0.2,0.6-0.2,0.8L0,72.2c-0.3,2.5,1.4,4.9,4,5.2c0.1,0,0.3,0,0.4,0l12.1,0.5l5.8-1.4L23.8,71.4L23.8,71.4z"/>
<path id="Path_27" class="st1" d="M58.3,38.4l4.3-2.4l1.8,37.7l-0.6,4.6C63.8,78.4,53.1,48.8,58.3,38.4L58.3,38.4z"/>
<circle id="Ellipse_1" class="st0" cx="72.9" cy="16.1" r="10.7"/>
<path id="Path_28" class="st1" d="M63.8,22.4l2.5,2l-2.9-11c0,0,8.1-0.2,8.8-4.6c0,0,6.4-0.2,8.1-0.2S82.8,20,82.8,20
	s3.3-9.3-0.1-14.1S80.5,4,79.8,2.3S72.1-1,67.6,0.8S62.9,5,61.6,5s-6.2,6.9-1.7,12.4S63.8,22.4,63.8,22.4L63.8,22.4z"/>
<path id="Path_29" class="st0" d="M96.4,92.3c1.2-0.9,2.1-2.1,2.7-3.4l12.6-8.8l-4.4-5.9L95,83.8c-1.4,0.3-2.8,1-3.9,1.9
	c-2.9,2.3-4,5.7-2.6,7.5S93.5,94.6,96.4,92.3L96.4,92.3L96.4,92.3z"/>
<path id="Path_30" class="st0" d="M47.9,78.9c-0.9,1.2-1.4,2.6-1.7,4l-9.7,12l5.8,4.5l9.2-12.6c1.3-0.7,2.4-1.7,3.3-2.9
	c2.1-3,2.3-6.5,0.4-7.9S50.1,75.9,47.9,78.9L47.9,78.9L47.9,78.9z"/>
<path id="Path_31" class="st2" d="M92.3,42.5c0,0,3.1-5.2,6.2-2.1c2.4,2.4,15.9,18,21.4,24.4c1.5,1.8,2.3,4,2.3,6.3l0,0
	c0,3.6-2,6.9-5.2,8.6l-17.2,9.1l-4.8-7.2l14.8-10.7L87.2,58.7L92.3,42.5z"/>
<path id="Path_32" class="st2" d="M38,90l-2.7,8l7.9,4.1l6-4.1l3.8-8.8L41.8,86"/>
<g id="sparkles_homepage" transform="translate(-131.679 -13.381)">
	<path id="Path_33" class="st4" d="M307.6,20.6l-26,7.1l3.8,16.8c-3.5-2.4-8.4-1.5-10.7,2.1c-2.4,3.5-1.5,8.4,2.1,10.7
		c3.5,2.4,8.4,1.5,10.7-2.1c1.7-2.5,1.8-5.8,0.2-8.4l-3-13.4l22.4-7l2,10c-3.5-2.4-8.3-1.5-10.8,2s-1.5,8.3,2,10.8
		c3.5,2.4,8.3,1.5,10.8-2c1.7-2.5,1.8-5.8,0.2-8.5L307.6,20.6L307.6,20.6z"/>
	<path id="Path_34" class="st4" d="M404,42c-4.2,0-7.6,3.4-7.6,7.6c0,1.2,0.3,2.3,0.8,3.3l4.3,17.9l2.5-0.6l-3.3-13.8
		c3.8,1.9,8.3,0.3,10.2-3.4c1.9-3.8,0.3-8.3-3.4-10.2C406.4,42.3,405.2,42,404,42L404,42z"/>
	<path id="Path_35" class="st4" d="M362,116.4l-4.3-17.2l-2.6,0.6l3.4,13.5c-1.1-0.5-2.2-0.7-3.4-0.7c-4.3,0.1-7.7,3.7-7.6,8.1
		c0.1,4.3,3.7,7.7,8.1,7.6c4.2-0.1,7.6-3.6,7.6-7.8C363.1,119,362.7,117.6,362,116.4z"/>
	<path id="Path_43" class="st4" d="M333.7,77.2c-0.4-1.4-0.7-1.3-0.9-1.3c-1.2,0-2.5,0.1-3.6,0.5c-0.5,0.1-1.3,0.2-1.6,0.2
		c0,0-0.1,0.1-0.1,0.1c-0.3,0-0.6,0-0.9,0.1c0-0.3-0.1-0.6-0.1-1c-0.1-1.1-0.2-2.3-0.4-3.4c0-0.2,0.4-0.5-0.6-0.6h0
		c-0.4,0-0.7,0-1.1,0c-1.6,0-2.2,0.1-1.9,0.4c0.1,0.1,0,0.1-0.1,0.2c-0.1,0.2-0.1,0.4-0.1,0.6c0,0.2,0.3,0.4,0.3,0.6
		c-0.2,0.8-0.3,1.5-0.3,2.3c0.1,0.6,0.2,1.2,0.4,1.7c-0.5,0-0.9,0-1.4,0c-1.3,0-2.6,0-3.9-0.1c-0.3,0-0.5-0.5-0.9,0.5v0
		c-0.1,0.3-0.2,0.7-0.2,1.1c-0.3,1.6-0.3,2.1,0.1,1.9c0.1,0,0.2,0,0.2,0.1c0.2,0.1,0.5,0.2,0.7,0.2c0.2,0,0.5-0.2,0.7-0.1
		c0.9,0.3,1.8,0.5,2.8,0.6c0.8,0,1.6-0.1,2.3-0.3c0,0.9,0.1,1.8,0.4,2.6c0.3,0.7,0,1.4-0.1,2.1c0,0.3,0.9,0.4,2.3,0.3
		s1.4-0.4,1.5-0.6c0.3-1.1,0.4-2.2,0.2-3.3c-0.1-0.5,0-1.2-0.1-1.4c0,0-0.1-0.1-0.1-0.1v-0.3h0.1c1.3-0.1,2.6-0.4,3.7-0.9
		c0.8-0.3,1.7-0.5,2.6-0.5C334.2,79.6,334.2,78.7,333.7,77.2z"/>
	<path id="Path_44" class="st4" d="M418.3,112.1c-0.5-1.3-0.8-1.3-0.9-1.3c-0.9-0.1-1.8,0-2.7,0.3c-0.4,0.1-0.8,0.1-1.2,0.1
		c0,0-0.1,0.1-0.1,0.1c-0.5,0-1.1,0-1.6,0.1v-0.6c-0.1-0.9-0.1-1.8-0.3-2.7c0-0.2,0.4-0.4-0.6-0.5h0c-0.4,0-0.7,0-1.1,0
		c-1.6,0-2.2,0.1-1.9,0.3c0.1,0.1,0,0.1-0.1,0.2c-0.1,0.1-0.1,0.3-0.1,0.5c0,0.2,0.3,0.3,0.2,0.5c-0.2,0.6-0.4,1.2-0.5,1.8
		c0,0.3,0.1,0.5,0.1,0.8c-0.6-0.1-1.2-0.2-1.7-0.4c-0.2-0.1-0.2-0.5-0.8,0.3l0,0c-0.2,0.3-0.3,0.6-0.5,1c-0.7,1.5-0.8,2-0.4,1.9
		c0.1,0,0.1,0.1,0.2,0.1c0.1,0.2,0.3,0.3,0.5,0.3c0.2,0.1,0.5-0.1,0.6,0c0.7,0.4,1.4,0.8,2.2,1.1c0.1,0,0.2,0,0.4,0.1
		c0,0.5,0.1,1,0.3,1.5c0.3,0.6-0.1,1.1-0.2,1.7c-0.1,0.2,0.8,0.4,2.3,0.3s1.4-0.3,1.5-0.4c0.4-0.8,0.5-1.7,0.3-2.6
		c0-0.2,0-0.5,0-0.7c0.3,0,0.7,0,1-0.1c1.1,0,2.1-0.3,3.1-0.8c0.7-0.3,1.4-0.4,2.2-0.4C419,114.4,418.9,113.5,418.3,112.1z"/>
	<path id="Path_45" class="st4" d="M456.5,63.6c0.1-1.4,0.4-1.4,0.6-1.5c1.2-0.3,2.5-0.4,3.8-0.2c0.5,0,1.4,0,1.6,0
		c0.1,0,0.1,0.1,0.1,0.1c0.3,0,0.7,0,1,0c0.1-0.2,0.1-0.4,0.2-0.6c-0.1-0.3,0.1-0.5,0.2-0.7c0.2-0.9,0.4-1.7,0.5-2.6
		c0.2-1.4,0.4-2.9,0.7-4.3c0.1-0.3-0.4-0.6,0.6-0.8h0c0.4,0,0.7,0,1.1,0c1.6,0.1,2.1,0.2,1.9,0.6c-0.1,0.1,0,0.2,0,0.3
		c0.1,0.2,0.1,0.5,0.1,0.8c0,0.2-0.3,0.5-0.3,0.7c0.1,1,0.2,1.9,0.2,2.9c-0.1,1.1-0.6,2.1-0.8,3.2c-0.1,0.4-0.1,0.8-0.2,1.3
		c0.4,0,0.8,0.1,1.3,0.1c1.3,0.1,2.7,0.2,4,0.4c0.3,0,0.6-0.4,0.8,0.6v0c0,0.4,0,0.7,0,1.1c0,1.6-0.1,2.2-0.4,1.9
		c-0.1-0.1-0.2,0-0.2,0.1c-0.2,0.1-0.5,0.1-0.7,0.1c-0.2,0-0.5-0.3-0.7-0.2c-0.9,0.2-1.8,0.3-2.7,0.4c-0.7,0-1.3-0.2-1.9-0.3
		c-0.1,0.7-0.2,1.3-0.5,2c-0.2,0.9-0.3,1.8-0.1,2.7c0,0.4-0.9,0.5-2.4,0.3s-1.4-0.5-1.4-0.7c-0.2-1.4-0.2-2.7,0.1-4.1
		c0-0.2,0.1-0.4,0.1-0.6H463c-1.2,0-2.4-0.1-3.6-0.4c-0.8-0.2-1.7-0.1-2.5,0.1C456.6,66,456.4,65.1,456.5,63.6z"/>
</g>
</svg>
